<svg data-v-423bf9ae="" xmlns="http://www.w3.org/2000/svg" viewBox="0 0 594 90" class="iconLeft"><!----><!----><!----><g data-v-423bf9ae="" id="c0cfe9a9-cd8a-4b6b-9374-f75cc7760e41" fill="#ffffff" transform="matrix(4.373178061430253,0,0,4.373178061430253,106.76384511617593,-0.7434401272529954)"><path d="M0.74 14.35L4.17 14.35L4.17 13.85L2.77 13.85L2.77 9.73L5.89 9.73L5.89 10.88L6.55 10.88L6.55 8.04L5.89 8.04L5.89 9.18L2.77 9.18L2.77 5.12L6.99 5.12L6.99 6.83L7.76 6.83L7.76 4.58L0.74 4.58L0.74 5.08L1.86 5.08L1.86 13.85L0.74 13.85ZM10.51 5.29C10.92 5.29 11.14 5.03 11.14 4.69L11.14 4.63C11.14 4.30 10.92 4.03 10.51 4.03C10.11 4.03 9.88 4.30 9.88 4.63L9.88 4.69C9.88 5.03 10.11 5.29 10.51 5.29ZM8.97 14.35L12.05 14.35L12.05 13.85L10.95 13.85L10.95 7.04L8.97 7.36L8.97 7.74L10.08 7.90L10.08 13.85L8.97 13.85ZM13.16 14.35L16.24 14.35L16.24 13.85L15.13 13.85L15.13 9.21C15.13 8.15 16.07 7.62 17.02 7.62C18.27 7.62 18.89 8.33 18.89 9.80L18.89 13.85L17.78 13.85L17.78 14.35L20.86 14.35L20.86 13.85L19.75 13.85L19.75 9.72C19.75 7.92 19.03 7.01 17.32 7.01C16.10 7.01 15.40 7.67 15.16 8.30L15.11 8.30L15.11 7.04L13.16 7.36L13.16 7.74L14.27 7.90L14.27 13.85L13.16 13.85ZM25.07 14.52C26.26 14.52 26.99 13.93 27.29 13.23L27.34 13.23L27.34 14.49L29.32 14.17L29.32 13.79L28.21 13.64L28.21 3.60L26.24 3.92L26.24 4.30L27.34 4.45L27.34 8.30L27.29 8.30C26.98 7.62 26.26 7.01 25.07 7.01C23.24 7.01 22.08 8.32 22.08 10.77C22.08 13.22 23.24 14.52 25.07 14.52ZM25.30 13.92C23.86 13.92 23.03 12.88 23.03 11.27L23.03 10.26C23.03 8.65 23.86 7.62 25.30 7.62C26.33 7.62 27.34 8.23 27.34 9.23L27.34 12.31C27.34 13.30 26.33 13.92 25.30 13.92ZM30.52 14.35L37.28 14.35L37.28 12.01L36.51 12.01L36.51 13.80L32.55 13.80L32.55 5.08L33.67 5.08L33.67 4.58L30.52 4.58L30.52 5.08L31.64 5.08L31.64 13.85L30.52 13.85ZM41.83 14.52C43.05 14.52 43.76 13.86 43.99 13.23L44.04 13.23L44.04 14.49L45.99 14.17L45.99 13.79L44.88 13.64L44.88 7.04L42.91 7.36L42.91 7.74L44.02 7.90L44.02 12.32C44.02 13.38 43.08 13.92 42.13 13.92C40.88 13.92 40.26 13.20 40.26 11.72L40.26 7.04L38.29 7.36L38.29 7.74L39.40 7.90L39.40 11.80C39.40 13.61 40.12 14.52 41.83 14.52ZM46.80 14.35L49.31 14.35L49.31 13.85L48.30 13.85L50.16 11.24L50.20 11.24L52.04 13.85L51.07 13.85L51.07 14.35L53.86 14.35L53.86 13.85L53.09 13.85L50.81 10.67L52.96 7.69L53.79 7.69L53.79 7.18L51.28 7.18L51.28 7.69L52.28 7.69L50.53 10.25L50.48 10.25L48.66 7.69L49.63 7.69L49.63 7.18L46.84 7.18L46.84 7.69L47.61 7.69L49.88 10.82L47.61 13.85L46.80 13.85ZM58.14 14.52C59.36 14.52 60.07 13.86 60.30 13.23L60.35 13.23L60.35 14.49L62.30 14.17L62.30 13.79L61.19 13.64L61.19 7.04L59.22 7.36L59.22 7.74L60.33 7.90L60.33 12.32C60.33 13.38 59.39 13.92 58.44 13.92C57.19 13.92 56.57 13.20 56.57 11.72L56.57 7.04L54.60 7.36L54.60 7.74L55.71 7.90L55.71 11.80C55.71 13.61 56.43 14.52 58.14 14.52ZM63.41 14.35L66.77 14.35L66.77 13.85L65.38 13.85L65.38 9.25C65.38 8.39 66.32 7.48 67.14 7.48C67.26 7.48 67.44 7.49 67.49 7.50L67.49 7.53C67.33 7.56 67.17 7.77 67.17 8.06C67.17 8.41 67.44 8.67 67.84 8.67C68.22 8.67 68.49 8.40 68.49 7.95C68.49 7.35 68.04 7.01 67.33 7.01C66.26 7.01 65.69 7.71 65.42 8.36L65.35 8.36L65.35 7.04L63.41 7.36L63.41 7.74L64.51 7.90L64.51 13.85L63.41 13.85ZM70.76 17.32C71.68 17.32 72.30 16.63 72.73 15.51L75.75 7.69L76.48 7.69L76.48 7.18L73.93 7.18L73.93 7.69L75.11 7.69L73.02 13.38L72.98 13.38L70.84 7.69L72.02 7.69L72.02 7.18L69.17 7.18L69.17 7.69L69.90 7.69L72.56 14.56L72.24 15.41C71.85 16.45 71.36 16.90 70.78 16.90C70.63 16.90 70.49 16.88 70.38 16.84L70.38 16.81C70.56 16.74 70.73 16.56 70.73 16.30C70.73 15.93 70.52 15.71 70.15 15.71C69.75 15.71 69.52 15.97 69.52 16.37C69.52 16.90 69.90 17.32 70.76 17.32ZM80.61 14.35L81.55 14.35L84.70 5.08L85.47 5.08L85.47 4.58L82.68 4.58L82.68 5.08L84.03 5.08L82.49 9.74L81.27 13.44L81.21 13.44L80.01 9.76L78.43 5.08L79.77 5.08L79.77 4.58L76.69 4.58L76.69 5.08L77.46 5.08ZM87.70 5.29C88.10 5.29 88.33 5.03 88.33 4.69L88.33 4.63C88.33 4.30 88.10 4.03 87.70 4.03C87.29 4.03 87.07 4.30 87.07 4.63L87.07 4.69C87.07 5.03 87.29 5.29 87.70 5.29ZM86.16 14.35L89.24 14.35L89.24 13.85L88.13 13.85L88.13 7.04L86.16 7.36L86.16 7.74L87.26 7.90L87.26 13.85L86.16 13.85ZM90.16 14.35L93.24 14.35L93.24 13.85L92.13 13.85L92.13 3.60L90.16 3.92L90.16 4.30L91.27 4.45L91.27 13.85L90.16 13.85ZM94.16 14.35L97.24 14.35L97.24 13.85L96.14 13.85L96.14 3.60L94.16 3.92L94.16 4.30L95.27 4.45L95.27 13.85L94.16 13.85ZM100.63 14.52C101.96 14.52 102.55 13.86 102.82 13.22L102.87 13.22L102.87 13.55C102.87 14.15 103.19 14.49 103.85 14.49C104.22 14.49 104.62 14.39 104.82 14.27L104.82 13.89L103.71 13.89L103.71 9.23C103.71 7.81 102.79 7.01 101.29 7.01C99.74 7.01 98.74 7.71 98.74 8.44C98.74 8.86 98.99 9.10 99.37 9.10C99.76 9.10 100.02 8.86 100.02 8.46C100.02 8.13 99.82 7.95 99.61 7.85L99.61 7.83C99.89 7.64 100.38 7.52 101.02 7.52C102.21 7.52 102.84 8.16 102.84 9.35L102.84 10.49L101.61 10.49C99.29 10.49 98.42 11.20 98.42 12.59C98.42 13.76 99.25 14.52 100.63 14.52ZM100.95 13.93C99.93 13.93 99.36 13.45 99.36 12.70L99.36 12.39C99.36 11.45 99.92 10.93 101.72 10.93L102.84 10.93L102.84 12.35C102.84 13.33 102.02 13.93 100.95 13.93ZM108.74 14.52C110.32 14.52 111.27 13.68 111.27 12.47C111.27 11.26 110.52 10.67 109.14 10.36L108.40 10.21C107.52 10.01 106.99 9.60 106.99 8.81C106.99 7.97 107.63 7.56 108.68 7.56C109.79 7.56 110.39 7.97 110.39 8.79L110.39 9.30L111.06 9.30L111.06 7.18L110.39 7.18L110.39 7.83L110.35 7.83C110.14 7.38 109.54 7.01 108.57 7.01C107.14 7.01 106.18 7.73 106.18 8.95C106.18 10.18 106.93 10.78 108.26 11.06L109.03 11.23C109.94 11.42 110.43 11.84 110.43 12.63C110.43 13.54 109.76 13.97 108.60 13.97C107.42 13.97 106.79 13.47 106.79 12.60L106.79 12.24L106.12 12.24L106.12 14.35L106.79 14.35L106.79 13.61L106.83 13.61C107.09 14.08 107.76 14.52 108.74 14.52Z"></path></g><!----><g data-v-423bf9ae="" id="802f896e-32a3-4601-ad46-abf71a052981" transform="matrix(2.8125,0,0,2.8125,0,0)" stroke="none" fill="#C9A641"><path d="M9.382 8.675h13.943v13.943L32 31.293V0H.707zM22.618 23.325H8.675V9.382L0 .707V32h31.293z"></path></g><!----></svg>